<?xml version="1.0" encoding="UTF-8"?>
<svg width="24" height="24" viewBox="0 0 24 24" fill="none" xmlns="http://www.w3.org/2000/svg">
    <path fill-rule="evenodd" clip-rule="evenodd" d="M9 5C9 3.89543 9.89543 3 11 3H13C14.1046 3 15 3.89543 15 5V6H19C19.5523 6 20 6.44772 20 7C20 7.55228 19.5523 8 19 8H18V19C18 20.1046 17.1046 21 16 21H8C6.89543 21 6 20.1046 6 19V8H5C4.44772 8 4 7.55228 4 7C4 6.44772 4.44772 6 5 6H9V5ZM11 5H13V6H11V5ZM8 8V19H16V8H8ZM10 10C10.5523 10 11 10.4477 11 11V16C11 16.5523 10.5523 17 10 17C9.44772 17 9 16.5523 9 16V11C9 10.4477 9.44772 10 10 10ZM14 10C14.5523 10 15 10.4477 15 11V16C15 16.5523 14.5523 17 14 17C13.4477 17 13 16.5523 13 16V11C13 10.4477 13.4477 10 14 10Z" fill="#333333"/>
</svg> 