<?xml version="1.0" encoding="UTF-8"?>
<svg width="24" height="24" viewBox="0 0 24 24" fill="none" xmlns="http://www.w3.org/2000/svg">
    <path d="M12 4C7.58172 4 4 7.58172 4 12C4 16.4183 7.58172 20 12 20C15.0736 20 17.7417 18.3649 19.0001 16H16C15.4477 16 15 15.5523 15 15C15 14.4477 15.4477 14 16 14H20.5C21.0523 14 21.5 14.4477 21.5 15V19C21.5 19.5523 21.0523 20 20.5 20C19.9477 20 19.5 19.5523 19.5 19V17.9459C17.8645 20.7061 14.7561 22.5 11.5 22.5C6.25329 22.5 2 18.2467 2 13C2 7.75329 6.25329 3.5 11.5 3.5C14.0454 3.5 16.3819 4.52464 18.1563 6.21591C18.5653 6.60408 18.5817 7.23692 18.1935 7.64591C17.8053 8.0549 17.1725 8.07124 16.7635 7.68307C15.3307 6.31954 13.4887 5.5 11.5 5.5C7.35786 5.5 4 8.85786 4 13C4 17.1421 7.35786 20.5 11.5 20.5C14.5418 20.5 17.1773 18.7679 18.3829 16.2493L18.5 16H16C15.4477 16 15 15.5523 15 15C15 14.4477 15.4477 14 16 14H20.5C21.0523 14 21.5 14.4477 21.5 15V19C21.5 19.5523 21.0523 20 20.5 20C19.9477 20 19.5 19.5523 19.5 19V17.9459C17.8645 20.7061 14.7561 22.5 11.5 22.5C6.25329 22.5 2 18.2467 2 13C2 7.75329 6.25329 3.5 11.5 3.5C14.0454 3.5 16.3819 4.52464 18.1563 6.21591C18.5653 6.60408 18.5817 7.23692 18.1935 7.64591C17.8053 8.0549 17.1725 8.07124 16.7635 7.68307C15.3307 6.31954 13.4887 5.5 11.5 5.5C7.35786 5.5 4 8.85786 4 13" fill="#333333"/>
</svg> 