<?xml version="1.0" encoding="UTF-8"?>
<svg width="24" height="24" viewBox="0 0 24 24" fill="none" xmlns="http://www.w3.org/2000/svg">
<path d="M23.5 6.507c-.278-1.023-1.097-1.828-2.14-2.1C19.478 4 12 4 12 4s-7.478 0-9.36.407c-1.043.272-1.862 1.077-2.14 2.1C0 8.357 0 12 0 12s0 3.643.5 5.493c.278 1.023 1.097 1.828 2.14 2.1C4.522 20 12 20 12 20s7.478 0 9.36-.407c1.043-.272 1.862-1.077 2.14-2.1.5-1.85.5-5.493.5-5.493s0-3.643-.5-5.493z" fill="#FF0000"/>
<path d="M9.6 15.6V8.4l6.4 3.6-6.4 3.6z" fill="white"/>
</svg> 